<mxfile host="app.diagrams.net" modified="2023-10-21T04:01:15.338Z" agent="Mozilla/5.0 (Windows NT 10.0; Win64; x64) AppleWebKit/537.36 (KHTML, like Gecko) Chrome/118.0.0.0 Safari/537.36 Edg/118.0.2088.57" etag="L4IFj8V-2aEsUDPRmXDS" version="22.0.6" type="google">
  <diagram name="Page-1" id="0783ab3e-0a74-02c8-0abd-f7b4e66b4bec">
    <mxGraphModel grid="1" page="1" gridSize="10" guides="1" tooltips="1" connect="1" arrows="1" fold="1" pageScale="1" pageWidth="850" pageHeight="1100" background="none" math="0" shadow="0">
      <root>
        <mxCell id="0" />
        <mxCell id="1" parent="0" />
        <mxCell id="1c1d494c118603dd-1" value="View page balance" style="swimlane;html=1;childLayout=stackLayout;startSize=20;rounded=0;shadow=0;comic=0;labelBackgroundColor=none;strokeWidth=1;fontFamily=Verdana;fontSize=12;align=center;" vertex="1" parent="1">
          <mxGeometry x="-20" y="20" width="1050" height="1590" as="geometry" />
        </mxCell>
        <mxCell id="1c1d494c118603dd-2" value="Students" style="swimlane;html=1;startSize=20;" vertex="1" parent="1c1d494c118603dd-1">
          <mxGeometry y="20" width="400" height="1570" as="geometry" />
        </mxCell>
        <mxCell id="8tE4Z3diwnzdjRbXyDNR-1" value="" style="ellipse;whiteSpace=wrap;html=1;rounded=0;shadow=0;comic=0;labelBackgroundColor=none;strokeWidth=1;fillColor=#000000;fontFamily=Verdana;fontSize=12;align=center;" vertex="1" parent="1c1d494c118603dd-2">
          <mxGeometry x="115" y="60" width="40" height="40" as="geometry" />
        </mxCell>
        <mxCell id="8tE4Z3diwnzdjRbXyDNR-23" value="Choose view page balance" style="rounded=1;whiteSpace=wrap;html=1;shadow=0;comic=0;labelBackgroundColor=none;strokeWidth=1;fontFamily=Verdana;fontSize=12;align=center;arcSize=50;" vertex="1" parent="1c1d494c118603dd-2">
          <mxGeometry x="70" y="130" width="140" height="50" as="geometry" />
        </mxCell>
        <mxCell id="8tE4Z3diwnzdjRbXyDNR-45" style="edgeStyle=orthogonalEdgeStyle;rounded=0;orthogonalLoop=1;jettySize=auto;html=1;entryX=0.5;entryY=0;entryDx=0;entryDy=0;" edge="1" parent="1c1d494c118603dd-2" source="8tE4Z3diwnzdjRbXyDNR-24" target="8tE4Z3diwnzdjRbXyDNR-25">
          <mxGeometry relative="1" as="geometry" />
        </mxCell>
        <mxCell id="8tE4Z3diwnzdjRbXyDNR-24" value="Choose action" style="rounded=1;whiteSpace=wrap;html=1;shadow=0;comic=0;labelBackgroundColor=none;strokeWidth=1;fontFamily=Verdana;fontSize=12;align=center;arcSize=50;" vertex="1" parent="1c1d494c118603dd-2">
          <mxGeometry x="70" y="290" width="140" height="50" as="geometry" />
        </mxCell>
        <mxCell id="8tE4Z3diwnzdjRbXyDNR-25" value="" style="rhombus;whiteSpace=wrap;html=1;" vertex="1" parent="1c1d494c118603dd-2">
          <mxGeometry x="100" y="390" width="80" height="40" as="geometry" />
        </mxCell>
        <mxCell id="8tE4Z3diwnzdjRbXyDNR-46" style="edgeStyle=orthogonalEdgeStyle;rounded=0;orthogonalLoop=1;jettySize=auto;html=1;entryX=0.464;entryY=0.008;entryDx=0;entryDy=0;entryPerimeter=0;" edge="1" parent="1c1d494c118603dd-2" source="8tE4Z3diwnzdjRbXyDNR-1" target="8tE4Z3diwnzdjRbXyDNR-23">
          <mxGeometry relative="1" as="geometry" />
        </mxCell>
        <mxCell id="8tE4Z3diwnzdjRbXyDNR-55" style="edgeStyle=orthogonalEdgeStyle;rounded=0;orthogonalLoop=1;jettySize=auto;html=1;entryX=0.5;entryY=0;entryDx=0;entryDy=0;" edge="1" parent="1c1d494c118603dd-2" source="8tE4Z3diwnzdjRbXyDNR-53" target="8tE4Z3diwnzdjRbXyDNR-54">
          <mxGeometry relative="1" as="geometry" />
        </mxCell>
        <mxCell id="8tE4Z3diwnzdjRbXyDNR-53" value="Select number of&lt;br&gt;&amp;nbsp;page to buy&amp;nbsp;" style="rounded=1;whiteSpace=wrap;html=1;shadow=0;comic=0;labelBackgroundColor=none;strokeWidth=1;fontFamily=Verdana;fontSize=12;align=center;arcSize=50;" vertex="1" parent="1c1d494c118603dd-2">
          <mxGeometry x="70" y="610" width="140" height="50" as="geometry" />
        </mxCell>
        <mxCell id="8tE4Z3diwnzdjRbXyDNR-58" style="edgeStyle=orthogonalEdgeStyle;rounded=0;orthogonalLoop=1;jettySize=auto;html=1;entryX=0.5;entryY=0;entryDx=0;entryDy=0;" edge="1" parent="1c1d494c118603dd-2" source="8tE4Z3diwnzdjRbXyDNR-54" target="8tE4Z3diwnzdjRbXyDNR-57">
          <mxGeometry relative="1" as="geometry" />
        </mxCell>
        <mxCell id="8tE4Z3diwnzdjRbXyDNR-54" value="Select payment method&lt;br&gt;" style="rounded=1;whiteSpace=wrap;html=1;shadow=0;comic=0;labelBackgroundColor=none;strokeWidth=1;fontFamily=Verdana;fontSize=12;align=center;arcSize=50;" vertex="1" parent="1c1d494c118603dd-2">
          <mxGeometry x="70" y="690" width="140" height="50" as="geometry" />
        </mxCell>
        <mxCell id="8tE4Z3diwnzdjRbXyDNR-65" style="edgeStyle=orthogonalEdgeStyle;rounded=0;orthogonalLoop=1;jettySize=auto;html=1;entryX=1;entryY=0.5;entryDx=0;entryDy=0;" edge="1" parent="1c1d494c118603dd-2" source="8tE4Z3diwnzdjRbXyDNR-57" target="8tE4Z3diwnzdjRbXyDNR-60">
          <mxGeometry relative="1" as="geometry">
            <mxPoint x="63.7650000000001" y="814.94" as="targetPoint" />
          </mxGeometry>
        </mxCell>
        <mxCell id="8tE4Z3diwnzdjRbXyDNR-66" style="edgeStyle=orthogonalEdgeStyle;rounded=0;orthogonalLoop=1;jettySize=auto;html=1;entryX=0.5;entryY=0;entryDx=0;entryDy=0;" edge="1" parent="1c1d494c118603dd-2" source="8tE4Z3diwnzdjRbXyDNR-57" target="8tE4Z3diwnzdjRbXyDNR-61">
          <mxGeometry relative="1" as="geometry" />
        </mxCell>
        <mxCell id="8tE4Z3diwnzdjRbXyDNR-57" value="" style="rhombus;whiteSpace=wrap;html=1;" vertex="1" parent="1c1d494c118603dd-2">
          <mxGeometry x="100" y="795" width="80" height="40" as="geometry" />
        </mxCell>
        <mxCell id="8tE4Z3diwnzdjRbXyDNR-59" value="E-wallet" style="rounded=1;whiteSpace=wrap;html=1;" vertex="1" parent="1c1d494c118603dd-2">
          <mxGeometry x="215" y="800" width="65" height="30" as="geometry" />
        </mxCell>
        <mxCell id="8tE4Z3diwnzdjRbXyDNR-64" style="edgeStyle=orthogonalEdgeStyle;rounded=0;orthogonalLoop=1;jettySize=auto;html=1;entryX=0.012;entryY=0.504;entryDx=0;entryDy=0;entryPerimeter=0;" edge="1" parent="1c1d494c118603dd-2" source="8tE4Z3diwnzdjRbXyDNR-57" target="8tE4Z3diwnzdjRbXyDNR-59">
          <mxGeometry relative="1" as="geometry" />
        </mxCell>
        <mxCell id="8tE4Z3diwnzdjRbXyDNR-60" value="Credit" style="rounded=1;whiteSpace=wrap;html=1;" vertex="1" parent="1c1d494c118603dd-2">
          <mxGeometry x="5" y="800" width="65" height="30" as="geometry" />
        </mxCell>
        <mxCell id="8tE4Z3diwnzdjRbXyDNR-61" value="Online banking" style="rounded=1;whiteSpace=wrap;html=1;" vertex="1" parent="1c1d494c118603dd-2">
          <mxGeometry x="107.5" y="870" width="65" height="30" as="geometry" />
        </mxCell>
        <mxCell id="8tE4Z3diwnzdjRbXyDNR-68" value="" style="whiteSpace=wrap;html=1;rounded=0;shadow=0;comic=0;labelBackgroundColor=none;strokeWidth=1;fillColor=#000000;fontFamily=Verdana;fontSize=12;align=center;rotation=0;" vertex="1" parent="1c1d494c118603dd-2">
          <mxGeometry x="10" y="950" width="256.75" height="10" as="geometry" />
        </mxCell>
        <mxCell id="8tE4Z3diwnzdjRbXyDNR-71" style="edgeStyle=orthogonalEdgeStyle;rounded=0;orthogonalLoop=1;jettySize=auto;html=1;entryX=0.786;entryY=0;entryDx=0;entryDy=0;entryPerimeter=0;" edge="1" parent="1c1d494c118603dd-2">
          <mxGeometry relative="1" as="geometry">
            <mxPoint x="249.99549999999974" y="950" as="targetPoint" />
            <mxPoint x="269.97" y="830" as="sourcePoint" />
          </mxGeometry>
        </mxCell>
        <mxCell id="8tE4Z3diwnzdjRbXyDNR-73" style="edgeStyle=orthogonalEdgeStyle;rounded=0;orthogonalLoop=1;jettySize=auto;html=1;entryX=0.084;entryY=0.202;entryDx=0;entryDy=0;entryPerimeter=0;" edge="1" parent="1c1d494c118603dd-2">
          <mxGeometry relative="1" as="geometry">
            <mxPoint x="32.470588235294144" y="830" as="sourcePoint" />
            <mxPoint x="33.246999999999844" y="952.02" as="targetPoint" />
          </mxGeometry>
        </mxCell>
        <mxCell id="8tE4Z3diwnzdjRbXyDNR-80" style="edgeStyle=orthogonalEdgeStyle;rounded=0;orthogonalLoop=1;jettySize=auto;html=1;entryX=0.469;entryY=0.006;entryDx=0;entryDy=0;entryPerimeter=0;" edge="1" parent="1c1d494c118603dd-2" source="8tE4Z3diwnzdjRbXyDNR-61">
          <mxGeometry relative="1" as="geometry">
            <mxPoint x="139.79575" y="950.06" as="targetPoint" />
          </mxGeometry>
        </mxCell>
        <mxCell id="8tE4Z3diwnzdjRbXyDNR-84" value="Make payment" style="rounded=1;whiteSpace=wrap;html=1;shadow=0;comic=0;labelBackgroundColor=none;strokeWidth=1;fontFamily=Verdana;fontSize=12;align=center;arcSize=50;" vertex="1" parent="1c1d494c118603dd-2">
          <mxGeometry x="70" y="1140" width="140" height="50" as="geometry" />
        </mxCell>
        <mxCell id="8tE4Z3diwnzdjRbXyDNR-99" style="edgeStyle=orthogonalEdgeStyle;rounded=0;orthogonalLoop=1;jettySize=auto;html=1;entryX=0.5;entryY=0;entryDx=0;entryDy=0;" edge="1" parent="1c1d494c118603dd-2" source="8tE4Z3diwnzdjRbXyDNR-96" target="8tE4Z3diwnzdjRbXyDNR-98">
          <mxGeometry relative="1" as="geometry">
            <mxPoint x="320" y="660" as="targetPoint" />
          </mxGeometry>
        </mxCell>
        <mxCell id="8tE4Z3diwnzdjRbXyDNR-96" value="Select timeline" style="rounded=1;whiteSpace=wrap;html=1;shadow=0;comic=0;labelBackgroundColor=none;strokeWidth=1;fontFamily=Verdana;fontSize=12;align=center;arcSize=50;" vertex="1" parent="1c1d494c118603dd-2">
          <mxGeometry x="250" y="580" width="140" height="50" as="geometry" />
        </mxCell>
        <mxCell id="8tE4Z3diwnzdjRbXyDNR-103" style="edgeStyle=orthogonalEdgeStyle;rounded=0;orthogonalLoop=1;jettySize=auto;html=1;entryX=0;entryY=0.5;entryDx=0;entryDy=0;exitX=-0.013;exitY=0.526;exitDx=0;exitDy=0;exitPerimeter=0;" edge="1" parent="1c1d494c118603dd-2" source="8tE4Z3diwnzdjRbXyDNR-98" target="8tE4Z3diwnzdjRbXyDNR-96">
          <mxGeometry relative="1" as="geometry" />
        </mxCell>
        <mxCell id="8tE4Z3diwnzdjRbXyDNR-98" value="" style="rhombus;whiteSpace=wrap;html=1;" vertex="1" parent="1c1d494c118603dd-2">
          <mxGeometry x="280" y="690" width="80" height="40" as="geometry" />
        </mxCell>
        <mxCell id="8tE4Z3diwnzdjRbXyDNR-104" value="&lt;font style=&quot;font-size: 10px;&quot;&gt;[exceed real time]&lt;/font&gt;" style="text;html=1;strokeColor=none;fillColor=none;align=center;verticalAlign=middle;whiteSpace=wrap;rounded=0;" vertex="1" parent="1c1d494c118603dd-2">
          <mxGeometry x="220" y="650" width="103.25" height="30" as="geometry" />
        </mxCell>
        <mxCell id="amvk9Wo_ZKP0-5ro7g5P-4" style="edgeStyle=orthogonalEdgeStyle;rounded=0;orthogonalLoop=1;jettySize=auto;html=1;" edge="1" parent="1c1d494c118603dd-2" source="amvk9Wo_ZKP0-5ro7g5P-1" target="8tE4Z3diwnzdjRbXyDNR-84">
          <mxGeometry relative="1" as="geometry" />
        </mxCell>
        <mxCell id="amvk9Wo_ZKP0-5ro7g5P-7" style="edgeStyle=orthogonalEdgeStyle;rounded=0;orthogonalLoop=1;jettySize=auto;html=1;exitX=0.5;exitY=0;exitDx=0;exitDy=0;" edge="1" parent="1c1d494c118603dd-2" source="amvk9Wo_ZKP0-5ro7g5P-1">
          <mxGeometry relative="1" as="geometry">
            <mxPoint x="140" y="770" as="targetPoint" />
            <Array as="points">
              <mxPoint x="140" y="1030" />
              <mxPoint x="340" y="1030" />
              <mxPoint x="340" y="770" />
              <mxPoint x="140" y="770" />
            </Array>
          </mxGeometry>
        </mxCell>
        <mxCell id="amvk9Wo_ZKP0-5ro7g5P-1" value="" style="rhombus;whiteSpace=wrap;html=1;" vertex="1" parent="1c1d494c118603dd-2">
          <mxGeometry x="100" y="1055" width="80" height="40" as="geometry" />
        </mxCell>
        <mxCell id="amvk9Wo_ZKP0-5ro7g5P-5" value="&lt;span style=&quot;font-size: 10px;&quot;&gt;[Continue]&lt;/span&gt;" style="text;html=1;strokeColor=none;fillColor=none;align=center;verticalAlign=middle;whiteSpace=wrap;rounded=0;" vertex="1" parent="1c1d494c118603dd-2">
          <mxGeometry x="140" y="1100" width="60" height="30" as="geometry" />
        </mxCell>
        <mxCell id="amvk9Wo_ZKP0-5ro7g5P-9" value="&lt;span style=&quot;font-size: 10px;&quot;&gt;[Back]&lt;/span&gt;" style="text;html=1;strokeColor=none;fillColor=none;align=center;verticalAlign=middle;whiteSpace=wrap;rounded=0;" vertex="1" parent="1c1d494c118603dd-2">
          <mxGeometry x="155" y="1030" width="60" height="30" as="geometry" />
        </mxCell>
        <mxCell id="1c1d494c118603dd-3" value="System" style="swimlane;html=1;startSize=20;" vertex="1" parent="1c1d494c118603dd-1">
          <mxGeometry x="400" y="20" width="340" height="1570" as="geometry" />
        </mxCell>
        <mxCell id="8tE4Z3diwnzdjRbXyDNR-35" value="Display page balance window" style="rounded=1;whiteSpace=wrap;html=1;shadow=0;comic=0;labelBackgroundColor=none;strokeWidth=1;fontFamily=Verdana;fontSize=12;align=center;arcSize=50;" vertex="1" parent="1c1d494c118603dd-3">
          <mxGeometry x="55" y="130" width="140" height="50" as="geometry" />
        </mxCell>
        <mxCell id="8tE4Z3diwnzdjRbXyDNR-37" value="Display payment logs window" style="rounded=1;whiteSpace=wrap;html=1;shadow=0;comic=0;labelBackgroundColor=none;strokeWidth=1;fontFamily=Verdana;fontSize=12;align=center;arcSize=50;" vertex="1" parent="1c1d494c118603dd-3">
          <mxGeometry x="170" y="390" width="140" height="50" as="geometry" />
        </mxCell>
        <mxCell id="8tE4Z3diwnzdjRbXyDNR-79" value="Open website corresponding to method" style="rounded=1;whiteSpace=wrap;html=1;shadow=0;comic=0;labelBackgroundColor=none;strokeWidth=1;fontFamily=Verdana;fontSize=12;align=center;arcSize=50;" vertex="1" parent="1c1d494c118603dd-3">
          <mxGeometry x="55" y="1050" width="140" height="50" as="geometry" />
        </mxCell>
        <mxCell id="8tE4Z3diwnzdjRbXyDNR-95" style="edgeStyle=orthogonalEdgeStyle;rounded=0;orthogonalLoop=1;jettySize=auto;html=1;entryX=0.5;entryY=0;entryDx=0;entryDy=0;" edge="1" parent="1c1d494c118603dd-3" source="8tE4Z3diwnzdjRbXyDNR-90" target="60571a20871a0731-5">
          <mxGeometry relative="1" as="geometry" />
        </mxCell>
        <mxCell id="8tE4Z3diwnzdjRbXyDNR-90" value="Update the number of pages&amp;nbsp;" style="rounded=1;whiteSpace=wrap;html=1;shadow=0;comic=0;labelBackgroundColor=none;strokeWidth=1;fontFamily=Verdana;fontSize=12;align=center;arcSize=50;" vertex="1" parent="1c1d494c118603dd-3">
          <mxGeometry x="55" y="1330" width="140" height="50" as="geometry" />
        </mxCell>
        <mxCell id="60571a20871a0731-5" value="" style="shape=mxgraph.bpmn.shape;html=1;verticalLabelPosition=bottom;labelBackgroundColor=#ffffff;verticalAlign=top;perimeter=ellipsePerimeter;outline=end;symbol=terminate;rounded=0;shadow=0;comic=0;strokeWidth=1;fontFamily=Verdana;fontSize=12;align=center;" vertex="1" parent="1c1d494c118603dd-3">
          <mxGeometry x="105" y="1480" width="40" height="40" as="geometry" />
        </mxCell>
        <mxCell id="8tE4Z3diwnzdjRbXyDNR-100" value="Show payment logs" style="rounded=1;whiteSpace=wrap;html=1;shadow=0;comic=0;labelBackgroundColor=none;strokeWidth=1;fontFamily=Verdana;fontSize=12;align=center;arcSize=50;" vertex="1" parent="1c1d494c118603dd-3">
          <mxGeometry x="65" y="790" width="140" height="50" as="geometry" />
        </mxCell>
        <mxCell id="8tE4Z3diwnzdjRbXyDNR-106" value="&lt;font style=&quot;font-size: 10px;&quot;&gt;[not exceed real time]&lt;/font&gt;" style="text;html=1;strokeColor=none;fillColor=none;align=center;verticalAlign=middle;whiteSpace=wrap;rounded=0;" vertex="1" parent="1c1d494c118603dd-3">
          <mxGeometry x="20" y="680" width="133.25" height="30" as="geometry" />
        </mxCell>
        <mxCell id="amvk9Wo_ZKP0-5ro7g5P-10" style="edgeStyle=orthogonalEdgeStyle;rounded=0;orthogonalLoop=1;jettySize=auto;html=1;exitX=1;exitY=0.5;exitDx=0;exitDy=0;entryX=1;entryY=0.5;entryDx=0;entryDy=0;" edge="1" parent="1c1d494c118603dd-3" source="8tE4Z3diwnzdjRbXyDNR-100" target="60571a20871a0731-5">
          <mxGeometry relative="1" as="geometry">
            <mxPoint x="390" y="770" as="sourcePoint" />
            <mxPoint x="530" y="1530" as="targetPoint" />
            <Array as="points">
              <mxPoint x="205" y="810" />
              <mxPoint x="240" y="810" />
              <mxPoint x="240" y="1500" />
            </Array>
          </mxGeometry>
        </mxCell>
        <mxCell id="8tE4Z3diwnzdjRbXyDNR-47" value="Display payment window" style="rounded=1;whiteSpace=wrap;html=1;shadow=0;comic=0;labelBackgroundColor=none;strokeWidth=1;fontFamily=Verdana;fontSize=12;align=center;arcSize=50;" vertex="1" parent="1c1d494c118603dd-3">
          <mxGeometry x="13.25" y="470" width="140" height="50" as="geometry" />
        </mxCell>
        <mxCell id="1c1d494c118603dd-4" value="Online Payment Providers" style="swimlane;html=1;startSize=20;" vertex="1" parent="1c1d494c118603dd-1">
          <mxGeometry x="740" y="20" width="310" height="1570" as="geometry" />
        </mxCell>
        <mxCell id="8tE4Z3diwnzdjRbXyDNR-88" value="" style="rhombus;whiteSpace=wrap;html=1;" vertex="1" parent="1c1d494c118603dd-4">
          <mxGeometry x="85" y="1270" width="80" height="40" as="geometry" />
        </mxCell>
        <mxCell id="8tE4Z3diwnzdjRbXyDNR-34" style="edgeStyle=orthogonalEdgeStyle;rounded=0;orthogonalLoop=1;jettySize=auto;html=1;entryX=0;entryY=0.5;entryDx=0;entryDy=0;exitX=1;exitY=0.5;exitDx=0;exitDy=0;" edge="1" parent="1c1d494c118603dd-1" source="8tE4Z3diwnzdjRbXyDNR-23" target="8tE4Z3diwnzdjRbXyDNR-35">
          <mxGeometry relative="1" as="geometry">
            <mxPoint x="240" y="284.11" as="sourcePoint" />
            <mxPoint x="374.43999999999994" y="289.51" as="targetPoint" />
          </mxGeometry>
        </mxCell>
        <mxCell id="8tE4Z3diwnzdjRbXyDNR-43" style="edgeStyle=orthogonalEdgeStyle;rounded=0;orthogonalLoop=1;jettySize=auto;html=1;entryX=0.5;entryY=0;entryDx=0;entryDy=0;exitX=0.5;exitY=1;exitDx=0;exitDy=0;" edge="1" parent="1c1d494c118603dd-1" source="8tE4Z3diwnzdjRbXyDNR-35" target="8tE4Z3diwnzdjRbXyDNR-24">
          <mxGeometry relative="1" as="geometry">
            <mxPoint x="209.1600000000003" y="270.75" as="targetPoint" />
            <mxPoint x="380" y="260" as="sourcePoint" />
          </mxGeometry>
        </mxCell>
        <mxCell id="8tE4Z3diwnzdjRbXyDNR-83" style="edgeStyle=orthogonalEdgeStyle;rounded=0;orthogonalLoop=1;jettySize=auto;html=1;entryX=0.5;entryY=0;entryDx=0;entryDy=0;exitX=0.479;exitY=1.095;exitDx=0;exitDy=0;exitPerimeter=0;" edge="1" parent="1c1d494c118603dd-1" source="8tE4Z3diwnzdjRbXyDNR-68" target="8tE4Z3diwnzdjRbXyDNR-79">
          <mxGeometry relative="1" as="geometry" />
        </mxCell>
        <mxCell id="8tE4Z3diwnzdjRbXyDNR-87" style="edgeStyle=orthogonalEdgeStyle;rounded=0;orthogonalLoop=1;jettySize=auto;html=1;entryX=0.5;entryY=0;entryDx=0;entryDy=0;exitX=0.479;exitY=1.003;exitDx=0;exitDy=0;exitPerimeter=0;" edge="1" parent="1c1d494c118603dd-1" source="8tE4Z3diwnzdjRbXyDNR-84" target="8tE4Z3diwnzdjRbXyDNR-88">
          <mxGeometry relative="1" as="geometry">
            <mxPoint x="150" y="1250" as="sourcePoint" />
            <mxPoint x="760" y="1400" as="targetPoint" />
          </mxGeometry>
        </mxCell>
        <mxCell id="8tE4Z3diwnzdjRbXyDNR-93" value="[Authenticated and successful]" style="html=1;verticalAlign=bottom;endArrow=block;curved=0;rounded=0;entryX=0.5;entryY=0;entryDx=0;entryDy=0;exitX=0;exitY=0.5;exitDx=0;exitDy=0;" edge="1" parent="1c1d494c118603dd-1" source="8tE4Z3diwnzdjRbXyDNR-88" target="8tE4Z3diwnzdjRbXyDNR-90">
          <mxGeometry x="-0.5588" y="-10" width="80" relative="1" as="geometry">
            <mxPoint x="390" y="1300" as="sourcePoint" />
            <mxPoint x="470" y="1300" as="targetPoint" />
            <Array as="points">
              <mxPoint x="525" y="1310" />
            </Array>
            <mxPoint as="offset" />
          </mxGeometry>
        </mxCell>
        <mxCell id="8tE4Z3diwnzdjRbXyDNR-105" style="edgeStyle=orthogonalEdgeStyle;rounded=0;orthogonalLoop=1;jettySize=auto;html=1;entryX=0.525;entryY=0.007;entryDx=0;entryDy=0;entryPerimeter=0;" edge="1" parent="1c1d494c118603dd-1" source="8tE4Z3diwnzdjRbXyDNR-98" target="8tE4Z3diwnzdjRbXyDNR-100">
          <mxGeometry relative="1" as="geometry" />
        </mxCell>
        <mxCell id="amvk9Wo_ZKP0-5ro7g5P-3" style="edgeStyle=orthogonalEdgeStyle;rounded=0;orthogonalLoop=1;jettySize=auto;html=1;entryX=1;entryY=0.5;entryDx=0;entryDy=0;" edge="1" parent="1c1d494c118603dd-1" source="8tE4Z3diwnzdjRbXyDNR-79" target="amvk9Wo_ZKP0-5ro7g5P-1">
          <mxGeometry relative="1" as="geometry" />
        </mxCell>
        <mxCell id="8tE4Z3diwnzdjRbXyDNR-94" value="[Failed]" style="html=1;verticalAlign=bottom;endArrow=block;curved=0;rounded=0;exitX=1;exitY=0.5;exitDx=0;exitDy=0;entryX=0.999;entryY=0.595;entryDx=0;entryDy=0;entryPerimeter=0;" edge="1" parent="1c1d494c118603dd-1" source="8tE4Z3diwnzdjRbXyDNR-88" target="8tE4Z3diwnzdjRbXyDNR-79">
          <mxGeometry x="-0.8209" y="-5" width="80" relative="1" as="geometry">
            <mxPoint x="1285" y="1225" as="sourcePoint" />
            <mxPoint x="640" y="1100" as="targetPoint" />
            <Array as="points">
              <mxPoint x="905" y="1100" />
              <mxPoint x="600" y="1100" />
            </Array>
            <mxPoint as="offset" />
          </mxGeometry>
        </mxCell>
        <mxCell id="8tE4Z3diwnzdjRbXyDNR-51" style="edgeStyle=orthogonalEdgeStyle;rounded=0;orthogonalLoop=1;jettySize=auto;html=1;entryX=0.5;entryY=0;entryDx=0;entryDy=0;" edge="1" parent="1c1d494c118603dd-1" source="8tE4Z3diwnzdjRbXyDNR-47" target="8tE4Z3diwnzdjRbXyDNR-53">
          <mxGeometry relative="1" as="geometry">
            <mxPoint x="140" y="630.0000000000002" as="targetPoint" />
          </mxGeometry>
        </mxCell>
        <mxCell id="8tE4Z3diwnzdjRbXyDNR-31" value="[Buy Printing Pages]" style="html=1;verticalAlign=bottom;endArrow=block;curved=0;rounded=0;exitX=0.5;exitY=1;exitDx=0;exitDy=0;entryX=0.474;entryY=-0.018;entryDx=0;entryDy=0;entryPerimeter=0;" edge="1" parent="1c1d494c118603dd-1" source="8tE4Z3diwnzdjRbXyDNR-25" target="8tE4Z3diwnzdjRbXyDNR-47">
          <mxGeometry x="-0.1872" y="-20" width="80" relative="1" as="geometry">
            <mxPoint x="139.86" y="480" as="sourcePoint" />
            <mxPoint x="139.86" y="530" as="targetPoint" />
            <mxPoint as="offset" />
            <Array as="points">
              <mxPoint x="480" y="450" />
            </Array>
          </mxGeometry>
        </mxCell>
        <mxCell id="8tE4Z3diwnzdjRbXyDNR-30" value="[View payment logs]" style="html=1;verticalAlign=bottom;endArrow=block;curved=0;rounded=0;exitX=0.973;exitY=0.498;exitDx=0;exitDy=0;exitPerimeter=0;entryX=-0.022;entryY=0.411;entryDx=0;entryDy=0;entryPerimeter=0;" edge="1" parent="1c1d494c118603dd-1" source="8tE4Z3diwnzdjRbXyDNR-25" target="8tE4Z3diwnzdjRbXyDNR-37">
          <mxGeometry x="-0.1664" width="80" relative="1" as="geometry">
            <mxPoint x="320" y="450" as="sourcePoint" />
            <mxPoint x="465" y="449.83" as="targetPoint" />
            <Array as="points" />
            <mxPoint as="offset" />
          </mxGeometry>
        </mxCell>
        <mxCell id="qLJtvF2VI_o_EPmk6JIc-2" style="edgeStyle=orthogonalEdgeStyle;rounded=0;orthogonalLoop=1;jettySize=auto;html=1;entryX=0.5;entryY=0;entryDx=0;entryDy=0;exitX=0.5;exitY=1;exitDx=0;exitDy=0;" edge="1" parent="1c1d494c118603dd-1" source="8tE4Z3diwnzdjRbXyDNR-37" target="8tE4Z3diwnzdjRbXyDNR-96">
          <mxGeometry relative="1" as="geometry">
            <mxPoint x="445" y="675" as="targetPoint" />
            <mxPoint x="718" y="560" as="sourcePoint" />
            <Array as="points">
              <mxPoint x="640" y="560" />
              <mxPoint x="320" y="560" />
            </Array>
          </mxGeometry>
        </mxCell>
      </root>
    </mxGraphModel>
  </diagram>
</mxfile>
